HIERARCHY
ROOT root
{
	OFFSET	0	260	24
	CHANNELS 6  Xposition Yposition Zposition Xrotation Yrotation Zrotation
	JOINT spine_3
	{
		OFFSET	0	81.6	10.2
		CHANNELS 3  Xrotation Yrotation Zrotation
		JOINT spine_4
		{
			OFFSET	0	110.4	14.6
			CHANNELS 3  Xrotation Yrotation Zrotation
			JOINT neck_1
			{
				OFFSET	0	71.8	-50.3
				CHANNELS 3  Xrotation Yrotation Zrotation
				JOINT neck_2
				{
					OFFSET	0	86.2	-25.8
					CHANNELS 3  Xrotation Yrotation Zrotation
					JOINT head_ee
					{
						OFFSET	0	179.8	-8.7
						CHANNELS 3  Xrotation Yrotation Zrotation
						End Site
						{
							OFFSET	1	0	0
						}
					}
				}
			}
			JOINT left_clavicle
			{
				OFFSET	-43.2	22.4	-70.8
				CHANNELS 3  Xrotation Yrotation Zrotation
				JOINT left_shoulder
				{
					OFFSET	-93.9	-5.79999	48.7
					CHANNELS 3  Xrotation Yrotation Zrotation
					JOINT left_elbow
					{
						OFFSET	-291.4	-30.8	15.2
						CHANNELS 3  Xrotation Yrotation Zrotation
						JOINT left_lowarm_twist
						{
							OFFSET	-110.7	-3.89999	13.6
							CHANNELS 3  Xrotation Yrotation Zrotation
							JOINT left_hand
							{
								OFFSET	-110.7	-3.89999	13.6
								CHANNELS 3  Xrotation Yrotation Zrotation
								JOINT left_ee
								{
									OFFSET	-80.8	-5.10001	12.1
									CHANNELS 3  Xrotation Yrotation Zrotation
									End Site
									{
										OFFSET	1	0	0
									}
								}
							}
						}
					}
				}
			}
			JOINT right_clavicle
			{
				OFFSET	43.2	22.4	-70.8
				CHANNELS 3  Xrotation Yrotation Zrotation
				JOINT right_shoulder
				{
					OFFSET	93.9	-5.79999	48.7
					CHANNELS 3  Xrotation Yrotation Zrotation
					JOINT right_elbow
					{
						OFFSET	291.4	-30.8	15.2
						CHANNELS 3  Xrotation Yrotation Zrotation
						JOINT right_lowarm_twist
						{
							OFFSET	110.7	-3.89999	13.6
							CHANNELS 3  Xrotation Yrotation Zrotation
							JOINT right_hand
							{
								OFFSET	110.7	-3.89999	13.6
								CHANNELS 3  Xrotation Yrotation Zrotation
								JOINT right_ee
								{
									OFFSET	80.8	-5.10001	12.1
									CHANNELS 3  Xrotation Yrotation Zrotation
									End Site
									{
										OFFSET	1	0	0
									}
								}
							}
						}
					}
				}
			}
		}
	}
	JOINT spine_2
	{
		OFFSET	0	-124.9	-9.1
		CHANNELS 3  Xrotation Yrotation Zrotation
		JOINT spine_1
		{
			OFFSET	0	-112	10
			CHANNELS 3  Xrotation Yrotation Zrotation
			JOINT left_hip
			{
				OFFSET	-82.8	-137.5	0.300001
				CHANNELS 3  Xrotation Yrotation Zrotation
				JOINT left_knee
				{
					OFFSET	-28.2	-396.7	2.2
					CHANNELS 3  Xrotation Yrotation Zrotation
					JOINT left_ankle
					{
						OFFSET	-11.7	-411.3	35.4
						CHANNELS 3  Xrotation Yrotation Zrotation
						JOINT left_toes
						{
							OFFSET	0	-60	-88.6
							CHANNELS 3  Xrotation Yrotation Zrotation
							JOINT left_foot_ee
							{
								OFFSET	-22.5	-16.5	-42.2
								CHANNELS 3  Xrotation Yrotation Zrotation
								End Site
								{
									OFFSET	1	0	0
								}
							}
						}
					}
				}
			}
			JOINT right_hip
			{
				OFFSET	82.8	-137.5	0.300001
				CHANNELS 3  Xrotation Yrotation Zrotation
				JOINT right_knee
				{
					OFFSET	28.2	-396.7	2.2
					CHANNELS 3  Xrotation Yrotation Zrotation
					JOINT right_ankle
					{
						OFFSET	11.7	-411.3	35.4
						CHANNELS 3  Xrotation Yrotation Zrotation
						JOINT right_toes
						{
							OFFSET	0	-60	-88.6
							CHANNELS 3  Xrotation Yrotation Zrotation
							JOINT right_foot_ee
							{
								OFFSET	22.5	-16.5	-42.2
								CHANNELS 3  Xrotation Yrotation Zrotation
								End Site
								{
									OFFSET	1	0	0
								}
							}
						}
					}
				}
			}
		}
	}
}
MOTION
Frames: 12
Frame Time: 0.02
1101.22839949 744.218 -1798.2957682 0.0358504231959 40.6234323182 3.91196016493 3.54877 0.097861 0.298867 3.54867 0.143833 0.279661 -10.558 14.0508 -2.78699 -10.8641 28.3623 1.06206 -0.0 0.0 -0.0 1.96964 10.5155 4.61574 -38.0323 -25.3453 61.7493 0.489145 -13.6209 0.0584179 -2.84613 -0.108936 0.347056 1.52997 -11.6997 5.34899 -0.0 0.0 -0.0 10.7491 -16.9615 -19.2235 -36.3388 51.3924 -43.2738 1.10849 28.771 -0.284321 -85.2437 8.48237 -5.17853 -3.91395 -18.6735 16.22 0.0 0.0 0.0 -3.54875 -0.123714 -0.289125 -3.54878 -0.141861 -0.280666 32.1186 14.0946 -20.2887 -43.8538 -0.72997 6.52917 -23.4043 10.7856 3.52285 -30.6546 0.0 0.0 -0.0 0.0 -0.0 8.43574 15.4029 -10.2706 -7.91205 -0.243997 -1.18879 20.0214 -4.09594 2.73714 -0.189103 0.0 0.0 0.0 0.0 0.0 
1098.62746566 742.36 -1816.64181465 1.420227541 37.4561634845 2.67212644558 3.98611 0.197371 -0.0233381 3.98616 0.191208 -0.0542164 -10.6699 15.2764 -2.60763 -11.0554 30.5658 1.63038 -0.0 0.0 -0.0 0.635389 12.2816 2.51104 -38.0269 -25.7615 64.671 0.57139 -15.8043 0.0793095 -1.79686 -0.066767 0.219734 1.62285 -9.88448 6.76981 -0.0 0.0 -0.0 10.7694 -17.6379 -19.1399 -35.1075 50.746 -43.037 1.25742 31.9169 -0.359585 -85.153 8.47104 -5.1808 -4.90394 -22.4187 19.9585 0.0 0.0 0.0 -3.98612 -0.195158 0.0375958 -3.9861 -0.19237 0.049938 32.5007 11.5743 -19.0681 -43.4642 -0.701739 6.4763 -22.6385 14.942 3.42568 -34.0418 0.0 0.0 -0.0 0.0 -0.0 6.8654 13.1647 -10.4773 -6.36524 -0.209255 -0.953964 20.0251 -7.72993 2.73396 0.708394 -0.0 -0.0 0.0 0.0 0.0 
1075.62703458 734.079 -1848.03888575 2.20123416046 32.2636748593 3.09912134909 4.5052 0.248763 -0.763663 4.50441 0.125039 -0.793364 -12.2317 18.0918 2.20712 -12.9253 32.9828 7.60403 -0.0 0.0 -0.0 -1.85981 13.1412 -1.51948 -35.7623 -26.6256 71.8712 0.623287 -17.1586 0.094034 1.2446 0.0421867 -0.153358 1.38986 -4.63395 7.42117 -0.0 0.0 -0.0 10.6212 -16.2655 -19.1198 -30.3628 50.0699 -45.6682 1.43736 35.4498 -0.459432 -81.5793 8.02184 -5.25569 -5.60339 -23.3473 23.6915 0.0 0.0 0.0 -4.50505 -0.206795 0.77608 -4.50537 -0.156994 0.787665 34.9732 1.81271 -19.5933 -37.7732 -0.331214 5.68402 -18.3636 20.264 2.81579 -38.7345 0.0 0.0 -0.0 0.0 -0.0 3.84276 12.0504 -11.5099 -4.05408 -0.14556 -0.605022 20.6224 -6.71859 2.8076 2.18044 -0.0 -0.0 0.0 0.0 0.0 
1062.05515218 734.079 -1836.83262468 2.25536225062 34.379421141 3.00060469355 4.5052 0.248763 -0.763663 4.50441 0.125039 -0.793364 -12.2317 18.0918 2.20712 -12.9253 32.9828 7.60403 -0.0 0.0 -0.0 -1.85981 13.1412 -1.51948 -35.7623 -26.6256 71.8712 0.623287 -17.1586 0.094034 1.2446 0.0421867 -0.153358 1.38986 -4.63395 7.42117 -0.0 0.0 -0.0 10.6212 -16.2655 -19.1198 -30.3628 50.0699 -45.6682 1.43736 35.4498 -0.459432 -81.5793 8.02184 -5.25569 -5.60339 -23.3473 23.6915 0.0 0.0 0.0 -4.50505 -0.206795 0.77608 -4.50537 -0.156994 0.787665 34.9732 1.81271 -19.5933 -37.7732 -0.331214 5.68402 -18.3636 20.264 2.81579 -38.7345 0.0 0.0 -0.0 0.0 -0.0 3.84276 12.0504 -11.5099 -4.05408 -0.14556 -0.605022 20.6224 -6.71859 2.8076 2.18044 -0.0 -0.0 0.0 0.0 0.0 
1045.51652689 725.395 -1862.97687246 2.42243533387 32.8660135331 2.22998233371 4.94612 -0.187884 -1.29973 4.94397 -0.390778 -1.25375 -13.3412 18.6152 6.99436 -13.9353 31.2103 12.5525 -0.0 0.0 -0.0 -2.41088 13.9152 -2.29602 -34.0041 -28.4495 74.7451 0.575698 -15.9175 0.080487 3.18785 0.101361 -0.394509 1.73075 -2.25438 10.7289 -0.0 0.0 -0.0 10.7774 -9.22476 -20.42 -23.3745 47.3426 -49.7747 1.30684 32.9163 -0.386082 -75.9373 7.30458 -5.31597 -5.76078 -26.0597 22.5218 0.0 0.0 0.0 -4.94564 0.23857 1.29138 -4.94651 0.320254 1.27359 34.9509 -1.14878 -17.9235 -20.5369 0.28887 3.12146 -21.3075 23.4767 3.31418 -39.7302 0.0 0.0 -0.0 0.0 -0.0 2.95225 12.735 -11.1885 -5.24994 -0.180276 -0.785261 23.1116 -8.29433 3.10986 5.95303 -0.0 -0.0 0.0 0.0 0.0 
1032.71080914 725.395 -1851.82113482 2.47742490186 34.7838964268 2.13121090334 4.94612 -0.187884 -1.29973 4.94397 -0.390778 -1.25375 -13.3412 18.6152 6.99436 -13.9353 31.2103 12.5525 -0.0 0.0 -0.0 -2.41088 13.9152 -2.29602 -34.0041 -28.4495 74.7451 0.575698 -15.9175 0.080487 3.18785 0.101361 -0.394509 1.73075 -2.25438 10.7289 -0.0 0.0 -0.0 10.7774 -9.22476 -20.42 -23.3745 47.3426 -49.7747 1.30684 32.9163 -0.386082 -75.9373 7.30458 -5.31597 -5.76078 -26.0597 22.5218 0.0 0.0 0.0 -4.94564 0.23857 1.29138 -4.94651 0.320254 1.27359 34.9509 -1.14878 -17.9235 -20.5369 0.28887 3.12146 -21.3075 23.4767 3.31418 -39.7302 0.0 0.0 -0.0 0.0 -0.0 2.95225 12.735 -11.1885 -5.24994 -0.180276 -0.785261 23.1116 -8.29433 3.10986 5.95303 -0.0 -0.0 0.0 0.0 0.0 
1006.23123099 720.912 -1861.47721953 0.874867016855 34.0412648722 2.57007078444 4.87912 0.0320746 -1.26674 4.87692 -0.16837 -1.25591 -15.1937 19.7785 10.6448 -15.8227 31.707 16.8764 -0.0 0.0 -0.0 -3.49458 15.1983 -3.81412 -32.159 -29.0378 76.3698 0.641456 -17.6282 0.0994652 3.66977 0.114766 -0.454608 1.87385 -2.32547 11.6797 -0.0 0.0 -0.0 10.7857 -7.6402 -20.623 -20.6638 45.601 -51.0578 1.45968 35.8678 -0.472439 -73.5186 6.99556 -5.31995 -6.07087 -28.8067 22.1283 0.0 0.0 0.0 -4.87865 0.020453 1.26698 -4.87953 0.101026 1.26311 33.3645 -7.05375 -16.2486 -14.1898 0.319595 2.1486 -13.5426 29.406 2.16703 -37.9565 0.0 0.0 -0.0 0.0 -0.0 2.16439 13.8414 -9.94499 -3.19306 -0.118236 -0.475706 24.8156 -8.3979 3.3108 6.03496 -0.0 -0.0 0.0 0.0 0.0 
962.061389333 703.177 -1904.44803907 -2.79065085325 35.7700130343 4.28024242591 4.89413 -0.0870491 -1.37719 4.89161 -0.303438 -1.34617 -11.5918 20.6254 10.6071 -11.829 32.3478 15.9695 -0.0 0.0 -0.0 -2.584 13.3712 -2.67847 -29.6665 -31.6286 75.8587 0.664227 -18.2133 0.106472 5.28993 0.156117 -0.657433 1.94096 -1.45955 12.4934 -0.0 0.0 -0.0 10.8118 -3.75709 -21.0633 -15.8366 38.8474 -50.8056 1.58105 38.0654 -0.545439 -63.9764 5.78101 -5.20766 -5.8108 -25.959 22.9124 0.0 0.0 0.0 -4.89358 0.143336 1.37248 -4.8946 0.230372 1.36058 30.3267 -20.5035 -16.6626 7.06765 -0.354851 -1.02541 -4.54048 28.5292 0.713833 -35.6699 0.0 0.0 -0.0 0.0 -0.0 1.70186 15.2633 -8.30531 -2.91921 -0.109139 -0.434663 29.6352 -7.52412 3.85 9.96362 -0.0 -0.0 0.0 0.0 0.0 
955.293672489 703.177 -1897.88006894 -2.82330906501 36.6792598043 4.33550435779 4.89413 -0.0870491 -1.37719 4.89161 -0.303438 -1.34617 -11.5918 20.6254 10.6071 -11.829 32.3478 15.9695 -0.0 0.0 -0.0 -2.584 13.3712 -2.67847 -29.6665 -31.6286 75.8587 0.664227 -18.2133 0.106472 5.28993 0.156117 -0.657433 1.94096 -1.45955 12.4934 -0.0 0.0 -0.0 10.8118 -3.75709 -21.0633 -15.8366 38.8474 -50.8056 1.58105 38.0654 -0.545439 -63.9764 5.78101 -5.20766 -5.8108 -25.959 22.9124 0.0 0.0 0.0 -4.89358 0.143336 1.37248 -4.8946 0.230372 1.36058 30.3267 -20.5035 -16.6626 7.06765 -0.354851 -1.02541 -4.54048 28.5292 0.713833 -35.6699 0.0 0.0 -0.0 0.0 -0.0 1.70186 15.2633 -8.30531 -2.91921 -0.109139 -0.434663 29.6352 -7.52412 3.85 9.96362 -0.0 -0.0 0.0 0.0 0.0 
947.499131323 703.177 -1890.05000169 -2.86348368704 37.7444226871 4.40193176122 4.89413 -0.0870491 -1.37719 4.89161 -0.303438 -1.34617 -11.5918 20.6254 10.6071 -11.829 32.3478 15.9695 -0.0 0.0 -0.0 -2.584 13.3712 -2.67847 -29.6665 -31.6286 75.8587 0.664227 -18.2133 0.106472 5.28993 0.156117 -0.657433 1.94096 -1.45955 12.4934 -0.0 0.0 -0.0 10.8118 -3.75709 -21.0633 -15.8366 38.8474 -50.8056 1.58105 38.0654 -0.545439 -63.9764 5.78101 -5.20766 -5.8108 -25.959 22.9124 0.0 0.0 0.0 -4.89358 0.143336 1.37248 -4.8946 0.230372 1.36058 30.3267 -20.5035 -16.6626 7.06765 -0.354851 -1.02541 -4.54048 28.5292 0.713833 -35.6699 0.0 0.0 -0.0 0.0 -0.0 1.70186 15.2633 -8.30531 -2.91921 -0.109139 -0.434663 29.6352 -7.52412 3.85 9.96362 -0.0 -0.0 0.0 0.0 0.0 
939.424817008 703.177 -1881.62229015 -2.90829274847 38.8696161743 4.47421550425 4.89413 -0.0870491 -1.37719 4.89161 -0.303438 -1.34617 -11.5918 20.6254 10.6071 -11.829 32.3478 15.9695 -0.0 0.0 -0.0 -2.584 13.3712 -2.67847 -29.6665 -31.6286 75.8587 0.664227 -18.2133 0.106472 5.28993 0.156117 -0.657433 1.94096 -1.45955 12.4934 -0.0 0.0 -0.0 10.8118 -3.75709 -21.0633 -15.8366 38.8474 -50.8056 1.58105 38.0654 -0.545439 -63.9764 5.78101 -5.20766 -5.8108 -25.959 22.9124 0.0 0.0 0.0 -4.89358 0.143336 1.37248 -4.8946 0.230372 1.36058 30.3267 -20.5035 -16.6626 7.06765 -0.354851 -1.02541 -4.54048 28.5292 0.713833 -35.6699 0.0 0.0 -0.0 0.0 -0.0 1.70186 15.2633 -8.30531 -2.91921 -0.109139 -0.434663 29.6352 -7.52412 3.85 9.96362 -0.0 -0.0 0.0 0.0 0.0 
933.941554833 703.177 -1875.70515662 -2.94076365619 39.6473053239 4.52552579049 4.89413 -0.0870491 -1.37719 4.89161 -0.303438 -1.34617 -11.5918 20.6254 10.6071 -11.829 32.3478 15.9695 -0.0 0.0 -0.0 -2.584 13.3712 -2.67847 -29.6665 -31.6286 75.8587 0.664227 -18.2133 0.106472 5.28993 0.156117 -0.657433 1.94096 -1.45955 12.4934 -0.0 0.0 -0.0 10.8118 -3.75709 -21.0633 -15.8366 38.8474 -50.8056 1.58105 38.0654 -0.545439 -63.9764 5.78101 -5.20766 -5.8108 -25.959 22.9124 0.0 0.0 0.0 -4.89358 0.143336 1.37248 -4.8946 0.230372 1.36058 30.3267 -20.5035 -16.6626 7.06765 -0.354851 -1.02541 -4.54048 28.5292 0.713833 -35.6699 0.0 0.0 -0.0 0.0 -0.0 1.70186 15.2633 -8.30531 -2.91921 -0.109139 -0.434663 29.6352 -7.52412 3.85 9.96362 -0.0 -0.0 0.0 0.0 0.0 
